<?xml version="1.0" encoding="UTF-8"?>
<svg id="Warstwa_2" data-name="Warstwa 2" xmlns="http://www.w3.org/2000/svg" viewBox="0 0 64 64">
  <defs>
    <style>
      .cls-1 {
        fill: #354caa;
      }

      .cls-1, .cls-2 {
        stroke-width: 0px;
      }

      .cls-2 {
        fill: #fff;
      }
    </style>
  </defs>
  <g id="Warstwa_1-2" data-name="Warstwa 1">
    <rect class="cls-1" width="64" height="64"/>
    <g>
      <path class="cls-2" d="M36.33,22.05c.65-.95,1.32-1.88,1.93-2.86,1.58-2.52,2.71-5.24,3.36-8.15.08-.37.3-.57.62-.56.3,0,.52.2.59.55.65,3.37,1.29,6.73,1.93,10.1.07.36.11.72.21,1.06.1.36.02.66-.2.96-1.03,1.45-2.23,2.75-3.56,3.93-2.88,2.54-6.16,4.32-9.89,5.24-.04,0-.07.02-.11.04-.02,0-.03.02-.04.03.71.22,1.44.41,2.14.66,4.65,1.64,8.42,4.48,11.36,8.43.29.39.37.76.28,1.24-.71,3.63-1.4,7.27-2.09,10.91-.01.06-.02.11-.04.17-.07.31-.28.49-.57.5-.29.01-.53-.19-.61-.5-.23-.84-.43-1.7-.7-2.53-1.03-3.15-2.64-5.98-4.69-8.57,0,0-.02,0-.05-.02,0,.04,0,.07,0,.1.7,1.76,1.01,3.61,1.23,5.47.19,1.52.26,3.05.2,4.59,0,.26-.1.45-.29.62-2.76,2.6-5.51,5.2-8.27,7.81-.05.05-.1.09-.15.14-.26.22-.54.26-.78.09-.25-.17-.32-.43-.2-.76.18-.51.37-1.02.53-1.54,1.12-3.68,1.32-7.43.85-11.22-.51-4.14-1.73-8.07-3.49-11.84-.48-1.03-1.03-2.02-1.55-3.02-.05-.1-.12-.19-.19-.28-.25-.33-.22-.66.07-.94.09-.08.16-.19.22-.29,2.29-4.1,3.9-8.45,4.7-13.08.78-4.52.66-8.99-.79-13.38-.11-.33-.23-.65-.35-.97-.12-.35-.06-.61.2-.78.26-.17.54-.13.8.12,2.81,2.65,5.62,5.31,8.42,7.97.13.13.23.36.24.55.08,3.38-.24,6.71-1.36,9.93,0,0,0,.02,0,.03.02.02.05.04.07.05ZM29.83,58.92c.13-.12.21-.19.29-.26,2.03-1.92,4.05-3.83,6.09-5.75.17-.16.24-.31.24-.54.01-2.21-.19-4.39-.62-6.56-.62-3.08-2.05-5.71-4.31-7.9-1.2-1.16-2.56-2.1-3.94-3.02-.45-.3-.91-.58-1.36-.86,0,.13.04.22.09.31,2.2,4.44,3.72,9.08,4.26,14.02.32,2.9.24,5.78-.31,8.65-.12.61-.27,1.22-.42,1.9ZM26.25,30.73c.13-.07.21-.11.29-.16.76-.5,1.55-.97,2.28-1.52,1.09-.82,2.21-1.61,3.17-2.56,1.64-1.6,2.76-3.57,3.42-5.77.81-2.7,1.07-5.49,1.02-8.3,0-.13-.1-.28-.2-.38-2.03-1.93-4.06-3.85-6.1-5.77-.09-.08-.18-.16-.31-.28.03.14.04.2.05.26.89,3.36,1.06,6.76.7,10.2-.42,3.98-1.5,7.79-3.06,11.46-.39.93-.83,1.84-1.27,2.82ZM26.98,33.07c3.41,2.11,6.49,4.62,9.13,7.63,2.65,3.03,4.7,6.41,5.99,10.29.04-.09.06-.11.06-.13.53-2.76,1.05-5.52,1.57-8.28.03-.14-.02-.33-.11-.44-3.28-4.37-7.54-7.28-12.87-8.57-1.24-.3-2.5-.48-3.78-.51ZM42.15,13.87s-.03,0-.05-.01c-.02.06-.05.12-.07.18-1.21,3.54-3.08,6.7-5.48,9.56-1.26,1.5-2.67,2.84-4.1,4.18-1.56,1.46-3.3,2.67-5.09,3.81-.06.04-.12.09-.18.13,0,.02.02.05.03.07.71-.09,1.42-.15,2.12-.27,5.93-1.02,10.64-4.04,14.27-8.8.14-.18.17-.35.13-.58-.34-1.72-.66-3.44-.99-5.16-.2-1.04-.4-2.07-.6-3.11Z"/>
      <path class="cls-2" d="M26.46,13.37c-.05,3.63-.71,7.15-1.82,10.6-.91,2.85-2.09,5.58-3.57,8.18-.1.17-.1.29,0,.46,2.25,3.99,3.85,8.22,4.74,12.71.66,3.33.86,6.68.42,10.06-.26,1.97-.72,3.89-1.43,5.75-.17.44-.51.61-.86.44-.31-.15-.4-.46-.25-.86.5-1.32.88-2.68,1.14-4.06.48-2.58.57-5.18.3-7.79-.58-5.75-2.46-11.07-5.33-16.06-.17-.29-.17-.54,0-.83,2.59-4.44,4.33-9.19,5.12-14.27.62-3.99.51-7.95-.62-11.86-.18-.6-.4-1.19-.59-1.79-.05-.16-.08-.34-.05-.5.05-.26.25-.4.51-.42.27-.02.51.13.62.42.22.6.43,1.2.61,1.81.78,2.61,1.11,5.29,1.08,8.01Z"/>
    </g>
  </g>
</svg>