<svg xmlns="http://www.w3.org/2000/svg" id="Warstwa_2" data-name="Warstwa 2" viewBox="0 0 272.08 112.55">
  <defs>
    <style>
      .cls-1 {
        fill: #fff;
        stroke-width: 0px;
      }
    </style>
  </defs>
  <g id="Warstwa_1-2" data-name="Warstwa 1">
    <g>
      <path class="cls-1" d="M35.27,112.55C15.79,112.55,0,96.76,0,77.27v-41.91s.94,0,.94,0h68.67s.94,0,.94,0v41.91c0,19.48-15.79,35.27-35.28,35.27ZM35.27,110.67c18.45,0,33.4-14.95,33.4-33.4v-40.03s-66.79,0-66.79,0v40.03c0,18.44,14.95,33.4,33.39,33.39Z"/>
      <path class="cls-1" d="M10.78,19.47c-2.41-6.36-4.85-12.76-4.95-12.96l.13-.15c.32.1.88.37,1.65.69.76.31,1.72.66,2.84.91,1.04.24,1.4.38,2.11,1.36.45.71.37,1.79.25,2.41.1.24.51.36.7.13.43-.75.81-1.49,1.47-2.1.72-.67,1.74-1.12,3.25-.89,2.5.31,3.4,3.71,2.07,4.93-.72.86-1.97,2.21-.4,3.11l.03.15c-.45.66-2.02,1.23-2.75.17-.38-.59-.42-.83-.27-1.47.05-.2.11-.43.18-.74.04-1.08-1.19-1.26-1.78-1.08-.5.16-1,.75-1.08,2.1-.23,3.14,1.93,7.82,6.64,6.56,2.6-.69,2.89-1.93,2.93-3.48-.9-.1-1.59-.86-1.59-1.78,0-.99.8-1.8,1.8-1.8s1.8.8,1.8,1.8c0,.68-.38,1.28-.94,1.58.04.15.12.33.17.46.54,1.25,1.33,2.13,3.79,1.91,4.86-.43,5.29-5.57,4-8.44-.54-1.24-1.22-1.62-1.74-1.61-.62.04-1.72.63-1.31,1.63.23.34.52.7.67,1.09.11.29.1.56,0,1.02-.33,1.24-1.99,1.25-2.65.78l-.02-.15c1.18-1.4-.48-2.23-1.45-2.8-1.65-.7-1.96-4.19.28-5.33,1.7-.92,3.14-.65,4.56.45.34.26.64.54.9.75.26.16.6-.11.61-.36-.34-.54-.85-1.02-.87-1.72-.12-.77.01-1.56.33-2.13.36-.61.88-1.13,1.32-1.68.52-.66,1.11-1.5,1.66-2.8h.2c.55,1.29,1.13,2.14,1.65,2.8.44.55.96,1.07,1.31,1.68.32.57.45,1.37.33,2.13-.03.69-.53,1.17-.87,1.71.01.25.35.52.61.36.67-.56,1.28-1.13,2.1-1.47.91-.38,2.02-.46,3.36.27,2.24,1.14,1.93,4.65.26,5.34-.98.57-2.61,1.4-1.44,2.79l-.02.15c-.65.47-2.31.46-2.65-.78-.15-.68-.11-.92.25-1.47.11-.17.25-.37.42-.63.41-1-.69-1.59-1.31-1.63-.52-.02-1.2.36-1.74,1.61-1.29,2.87-.86,8.01,4,8.44,2.47.22,3.25-.66,3.79-1.91.05-.13.12-.31.17-.46-.56-.3-.94-.9-.94-1.58,0-.99.8-1.8,1.8-1.8s1.8.8,1.8,1.8c0,.92-.7,1.68-1.59,1.78.03,1.55.32,2.79,2.93,3.48,4.72,1.26,6.87-3.42,6.64-6.56-.08-1.35-.59-1.94-1.08-2.1-.6-.18-1.83,0-1.78,1.08.09.4.25.84.26,1.25,0,.31-.1.56-.35.95-.74,1.06-2.3.49-2.75-.17l.03-.15c1.59-.91.31-2.26-.41-3.13-1.31-1.23-.41-4.61,2.08-4.92,1.91-.29,3.17.46,4.13,1.98.23.36.42.72.59,1.01.19.24.6.11.7-.13-.12-.61-.2-1.7.25-2.41.71-.98,1.06-1.12,2.11-1.36,1.12-.25,2.08-.6,2.83-.91.77-.32,1.33-.59,1.65-.69l.13.15c-.1.2-2.53,6.6-4.95,12.96l-4.55,12.03H15.48l-4.7-12.03Z"/>
      <g>
        <g>
          <path class="cls-1" d="M46.79,87.5l5,6.37s-3.55,2.78-3.55,2.77l-5.02-6.37,3.57-2.78Z"/>
          <path class="cls-1" d="M16.92,57.77c-1-.34-2.34-.21-3.32.48-.13.09-.37.08-.46,0-.04-.03-2.04-1.64-2.04-1.64l10.93-8.55,1.1,2.38c.05.12.02.34-.1.45-.73.66-1.24,1.57-1.26,3.07,0,1.57.95,2.56,1.32,3.05-.66.51-2.9,2.27-3.56,2.79-.86-1.25-1.49-1.75-2.61-2.03Z"/>
          <path class="cls-1" d="M48.89,100.2c.61.73,1.7.83,2.34.34l3.56-2.78c.64-.5.86-1.54.26-2.31l-.52-.66c-.62-.79-1.67-.81-2.31-.29l-3.56,2.77c-.65.51-.8,1.6-.31,2.26l.53.68Z"/>
          <path class="cls-1" d="M38.6,77.01l5.7,7.25-3.54,2.77-5.02-6.36,2.86-3.66ZM25.58,60.25l9.14,11.79-2.86,3.66-9.85-12.67,3.57-2.78Z"/>
          <path class="cls-1" d="M45.13,84.65l-4.21,3.29c-.98.75.5,2.73,1.52,1.95l4.22-3.28c.97-.76-.56-2.71-1.53-1.95Z"/>
          <path class="cls-1" d="M23.87,57.42l-4.21,3.29c-.98.75.5,2.73,1.52,1.95l4.22-3.28c.97-.76-.56-2.71-1.53-1.95Z"/>
          <path class="cls-1" d="M10.38,56l-5.45-4.22c-.08-.07-.06-.39.25-.33.05,0,3.41.32,3.41.32l-.02-2.43c-.01-.16.22-.36.38-.31.02,0,2.34.65,2.34.65l-1.14-5.17c-.05-.2.22-.42.41-.33,0,0,4.72,2.37,4.72,2.37l-.04-2.41c-.02-.16.2-.39.42-.33.03,0,2.31.64,2.31.64l.52-3.41c.01-.28.27-.26.31-.21,0,.02,2.84,6.32,2.84,6.32l-11.27,8.85Z"/>
        </g>
        <g>
          <path class="cls-1" d="M23.63,87.64l-5,6.37s3.55,2.78,3.55,2.77l5.02-6.37-3.57-2.78Z"/>
          <path class="cls-1" d="M53.5,57.91c1-.34,2.34-.21,3.32.48.13.09.37.08.46,0,.04-.03,2.04-1.64,2.04-1.64l-10.93-8.55-1.1,2.38c-.06.12-.02.34.1.45.73.66,1.24,1.57,1.26,3.07,0,1.57-.95,2.56-1.32,3.05.66.51,2.9,2.27,3.56,2.79.86-1.25,1.49-1.75,2.61-2.03Z"/>
          <path class="cls-1" d="M21.53,100.34c-.61.73-1.7.83-2.34.34l-3.56-2.78c-.64-.5-.86-1.54-.26-2.31l.52-.66c.62-.79,1.67-.81,2.31-.29l3.56,2.77c.65.51.8,1.6.31,2.26l-.53.68Z"/>
          <path class="cls-1" d="M25.29,84.79l4.21,3.29c.98.75-.5,2.73-1.52,1.95l-4.22-3.28c-.97-.76.56-2.71,1.53-1.95Z"/>
          <path class="cls-1" d="M46.55,57.56l4.21,3.29c.98.75-.5,2.73-1.52,1.95l-4.22-3.28c-.97-.76.56-2.71,1.53-1.95Z"/>
          <path class="cls-1" d="M60.04,56.15l5.45-4.22c.08-.07.06-.39-.25-.33-.05,0-3.41.32-3.41.32l.02-2.43c.01-.16-.22-.36-.38-.31-.02,0-2.34.65-2.34.65l1.14-5.17c.05-.2-.22-.42-.41-.33,0,0-4.72,2.37-4.72,2.37l.04-2.41c.02-.16-.2-.39-.42-.33-.03,0-2.31.64-2.31.64l-.52-3.41c-.01-.28-.27-.26-.31-.21,0,.02-2.84,6.32-2.84,6.32l11.27,8.85Z"/>
          <polygon class="cls-1" points="44.84 60.39 48.41 63.17 29.66 87.17 26.11 84.4 44.84 60.39"/>
        </g>
      </g>
    </g>
    <g>
      <path class="cls-1" d="M89,50.36c0,2.99.6,4.25,1.61,5.07.93.76,1.88.85,2.58.85.91,0,2.02-.29,2.84-1.11,1.13-1.13,1.2-2.99,1.2-5.11v-2.58c0-3.13,0-3.71-.04-4.37-.04-.7-.21-1.03-.89-1.17-.17-.04-.52-.06-.74-.06s-.35-.04-.35-.19.14-.19.43-.19c1.05,0,2.35.06,2.37.06.25,0,1.55-.06,2.35-.06.29,0,.43.04.43.19s-.12.19-.37.19c-.23,0-.35.02-.6.06-.56.1-.72.45-.76,1.17-.04.66-.04,1.24-.04,4.37v2.21c0,2.29-.23,4.72-1.96,6.21-1.46,1.26-2.95,1.48-4.29,1.48-1.09,0-3.07-.06-4.58-1.42-1.05-.95-1.83-2.47-1.83-5.46v-3.01c0-3.13,0-3.71-.04-4.37-.04-.7-.21-1.03-.89-1.17-.17-.04-.52-.06-.8-.06-.23,0-.35-.04-.35-.19s.14-.19.45-.19c1.09,0,2.39.06,3.01.06.5,0,1.79-.06,2.54-.06.31,0,.45.04.45.19s-.12.19-.33.19c-.23,0-.35.02-.6.06-.56.1-.72.45-.76,1.17-.04.66-.04,1.24-.04,4.37v2.89Z"/>
      <path class="cls-1" d="M106.64,41.85c0-.41.06-.7.27-.7.23,0,.41.27.76.64.25.27,3.38,3.63,6.39,6.62,1.4,1.4,4.29,4.47,4.64,4.8l-.21-9.36c-.02-1.26-.21-1.65-.7-1.86-.31-.12-.8-.12-1.09-.12-.25,0-.33-.06-.33-.19,0-.17.23-.19.54-.19,1.07,0,2.06.06,2.49.06.23,0,1.01-.06,2.02-.06.27,0,.47.02.47.19,0,.12-.12.19-.37.19-.21,0-.37,0-.62.06-.58.17-.74.6-.76,1.75-.08,4.35-.14,8.66-.23,13.01,0,.45-.08.64-.27.64-.23,0-.47-.23-.7-.45-1.3-1.24-3.94-3.94-6.08-6.06-2.25-2.23-4.6-4.87-4.97-5.26l.23,8.72c.04,1.61.31,2.14.72,2.29.35.12.74.14,1.07.14.23,0,.35.04.35.16,0,.17-.19.21-.47.21-1.34,0-2.16-.06-2.56-.06-.19,0-1.15.06-2.23.06-.27,0-.45-.02-.45-.21,0-.12.12-.16.33-.16.27,0,.64-.02.93-.1.54-.17.62-.76.64-2.56.06-4.37.14-9.46.19-12.2Z"/>
      <path class="cls-1" d="M128.44,47.48c0-3.13,0-3.71-.04-4.37-.04-.7-.25-1.05-.7-1.15-.23-.06-.49-.08-.74-.08-.21,0-.33-.04-.33-.21,0-.12.17-.17.49-.17.78,0,2.08.06,2.68.06.52,0,1.73-.06,2.51-.06.27,0,.43.04.43.17,0,.17-.12.21-.33.21s-.37.02-.62.06c-.56.1-.72.45-.76,1.17-.04.66-.04,1.24-.04,4.37v3.63c0,2,0,3.63.08,4.51.06.56.21.93.82,1.01.29.04.74.08,1.05.08.23,0,.33.06.33.16,0,.14-.17.21-.39.21-1.36,0-2.66-.06-3.22-.06-.47,0-1.77.06-2.6.06-.27,0-.41-.06-.41-.21,0-.1.08-.16.33-.16.31,0,.56-.04.74-.08.41-.08.54-.43.6-1.03.1-.87.1-2.49.1-4.49v-3.63Z"/>
      <path class="cls-1" d="M138.09,43.52c-.25-.76-.47-1.26-.76-1.46-.23-.14-.64-.19-.82-.19-.21,0-.33-.02-.33-.19,0-.14.17-.19.45-.19,1.07,0,2.21.06,2.39.06s1.09-.06,2.29-.06c.29,0,.43.06.43.19,0,.17-.17.19-.37.19-.17,0-.37,0-.52.08-.19.08-.23.23-.23.45,0,.27.21.97.45,1.9.35,1.36,2.27,7.61,2.66,8.84l4.04-10.82c.21-.58.35-.74.52-.74.23,0,.33.31.6.97l4.33,10.45c.39-1.46,2.04-6.91,2.76-9.32.14-.47.21-.91.21-1.2,0-.33-.19-.62-.99-.62-.21,0-.35-.06-.35-.19,0-.14.17-.19.47-.19,1.09,0,1.96.06,2.14.06.14,0,1.03-.06,1.71-.06.23,0,.37.04.37.17,0,.14-.1.21-.29.21-.21,0-.49.02-.72.1-.49.19-.72,1.01-1.15,2.19-.95,2.6-3.11,9.15-4.12,12.25-.23.72-.33.97-.6.97-.21,0-.33-.25-.64-1.01l-4.31-10.39c-.41,1.11-3.15,8.41-4.04,10.31-.39.85-.5,1.09-.74,1.09-.21,0-.29-.23-.47-.76l-4.37-13.09Z"/>
      <path class="cls-1" d="M164.45,47.48c0-3.13,0-3.71-.04-4.37-.04-.7-.21-1.03-.89-1.17-.17-.04-.52-.06-.8-.06-.23,0-.35-.04-.35-.19s.14-.19.45-.19c.95,0,1.9.06,2.97.06.66,0,4.76,0,5.15-.02.39-.04.72-.08.89-.12.1-.02.23-.08.33-.08s.12.08.12.19c0,.14-.1.39-.17,1.34-.02.21-.06,1.11-.1,1.36-.02.1-.06.23-.21.23s-.19-.12-.19-.37c0-.08-.02-.41-.12-.66-.14-.37-.35-.62-1.38-.74-.35-.04-2.52-.08-2.93-.08-.1,0-.14.06-.14.21v5.22c0,.14.02.23.14.23.45,0,2.82,0,3.3-.04.49-.04.8-.1.99-.31.14-.17.23-.27.33-.27.08,0,.14.04.14.17s-.08.45-.16,1.5c-.02.41-.08,1.24-.08,1.38,0,.16,0,.39-.19.39-.14,0-.19-.23-.19-.33-.02-.21-.02-.33-.08-.6-.1-.41-.39-.72-1.15-.8-.39-.04-2.43-.06-2.93-.06-.1,0-.12.08-.12.21v1.63c0,.7-.02,2.6,0,3.2.04,1.42.37,1.73,2.47,1.73.54,0,1.4,0,1.94-.25.54-.25.78-.68.93-1.53.04-.23.08-.31.23-.31.17,0,.17.17.17.37,0,.47-.17,1.88-.27,2.29-.14.54-.33.54-1.11.54-1.83,0-3.65-.12-5.71-.12-.82,0-1.67.06-2.6.06-.27,0-.41-.06-.41-.21,0-.1.08-.16.33-.16.31,0,.56-.04.74-.08.41-.08.52-.54.6-1.13.1-.87.1-2.49.1-4.39v-3.63Z"/>
      <path class="cls-1" d="M179.43,47.48c0-3.13,0-3.71-.04-4.37-.04-.7-.21-1.03-.89-1.17-.16-.04-.52-.06-.8-.06-.23,0-.35-.04-.35-.19s.14-.19.45-.19c1.09,0,2.39.06,2.82.06.7,0,2.27-.06,2.91-.06,1.3,0,2.68.12,3.79.89.58.39,1.4,1.44,1.4,2.82,0,1.53-.62,2.91-2.7,4.6,1.83,2.31,3.26,4.16,4.47,5.44,1.15,1.2,1.98,1.34,2.29,1.4.23.04.41.06.58.06s.25.06.25.16c0,.17-.14.21-.39.21h-2.02c-1.15,0-1.67-.1-2.21-.39-.89-.47-1.67-1.44-2.82-3.03-.82-1.13-1.77-2.54-2.04-2.84-.1-.12-.23-.14-.37-.14l-1.73-.04c-.1,0-.17.04-.17.17v.29c0,1.92,0,3.55.1,4.41.06.6.19,1.05.8,1.13.31.04.76.08,1.01.08.17,0,.25.06.25.16,0,.14-.14.21-.41.21-1.2,0-2.72-.06-3.03-.06-.39,0-1.69.06-2.51.06-.27,0-.41-.06-.41-.21,0-.1.08-.16.33-.16.31,0,.56-.04.74-.08.41-.08.52-.54.6-1.13.1-.87.1-2.49.1-4.39v-3.63ZM181.86,49.11c0,.23.04.31.19.37.43.14,1.05.21,1.57.21.82,0,1.09-.08,1.46-.35.62-.45,1.22-1.4,1.22-3.09,0-2.93-1.94-3.77-3.15-3.77-.52,0-.89.02-1.09.08-.14.04-.19.12-.19.29v6.27Z"/>
      <path class="cls-1" d="M196.43,56.84c-.33-.14-.39-.25-.39-.7,0-1.13.08-2.37.1-2.7.02-.31.08-.54.25-.54.19,0,.21.19.21.35,0,.27.08.7.19,1.05.45,1.53,1.67,2.08,2.95,2.08,1.86,0,2.76-1.26,2.76-2.35,0-1.01-.31-1.96-2.02-3.3l-.95-.74c-2.27-1.77-3.05-3.22-3.05-4.89,0-2.27,1.9-3.9,4.76-3.9.78,0,1.4.08,1.9.17.35.06.62.12.85.19.19.04.29.1.29.25,0,.27-.08.87-.08,2.47,0,.45-.06.62-.23.62-.14,0-.21-.12-.21-.37,0-.19-.1-.82-.54-1.36-.31-.39-.91-1.01-2.25-1.01-1.53,0-2.45.89-2.45,2.12,0,.95.47,1.67,2.19,2.97l.58.43c2.49,1.88,3.38,3.3,3.38,5.26,0,1.2-.45,2.62-1.94,3.59-1.03.66-2.19.85-3.28.85-1.2,0-2.12-.14-3.01-.54Z"/>
      <path class="cls-1" d="M214.54,51.75c0-1.11-.21-1.57-.47-2.16-.14-.33-2.91-4.87-3.63-5.94-.52-.76-1.03-1.28-1.42-1.5-.27-.14-.62-.27-.87-.27-.17,0-.31-.04-.31-.19,0-.12.14-.19.39-.19.37,0,1.92.06,2.6.06.43,0,1.28-.06,2.21-.06.21,0,.31.06.31.19s-.14.14-.45.23c-.19.04-.29.21-.29.37s.1.41.25.7c.29.62,3.17,5.59,3.5,6.16.21-.49,2.8-5.03,3.09-5.67.21-.45.29-.8.29-1.07,0-.21-.08-.43-.43-.52-.19-.04-.37-.08-.37-.21,0-.14.1-.19.35-.19.68,0,1.34.06,1.94.06.45,0,1.81-.06,2.21-.06.23,0,.37.04.37.17,0,.14-.17.21-.39.21-.21,0-.6.08-.91.25-.43.21-.66.45-1.11,1.01-.68.82-3.57,5.67-3.94,6.56-.31.74-.31,1.38-.31,2.06v1.69c0,.33,0,1.2.06,2.06.04.6.23,1.05.85,1.13.29.04.74.08,1.03.08.23,0,.33.06.33.16,0,.14-.16.21-.43.21-1.3,0-2.6-.06-3.15-.06-.52,0-1.81.06-2.58.06-.29,0-.45-.04-.45-.21,0-.1.1-.16.33-.16.29,0,.54-.04.72-.08.41-.08.6-.54.64-1.13.06-.87.06-1.73.06-2.06v-1.69Z"/>
      <path class="cls-1" d="M234.86,51.11c0,1.9,0,3.53.1,4.41.06.58.19,1.03.8,1.11.29.04.74.08,1.05.08.23,0,.33.06.33.16,0,.14-.17.21-.39.21-1.36,0-2.66-.06-3.24-.06-.47,0-1.77.06-2.6.06-.27,0-.41-.06-.41-.21,0-.1.08-.16.33-.16.31,0,.56-.04.74-.08.41-.08.54-.54.6-1.13.1-.87.1-2.49.1-4.39v-8.45c-.78.02-2.06.06-3.07.08-1.2.04-1.69.14-2,.6-.21.31-.31.56-.35.72-.04.17-.1.25-.23.25-.14,0-.19-.1-.19-.33,0-.33.39-2.21.43-2.37.06-.27.12-.39.25-.39.17,0,.37.21.89.25.6.06,1.38.1,2.06.1h8.16c.66,0,1.11-.06,1.42-.1.31-.06.47-.1.56-.1.14,0,.17.12.17.43,0,.43-.06,1.86-.06,2.39-.02.21-.06.33-.19.33-.16,0-.21-.1-.23-.41,0-.06-.02-.17-.02-.23-.04-.54-.6-1.11-2.43-1.15-.54-.02-1.38-.04-2.6-.06v8.45Z"/>
      <path class="cls-1" d="M246.3,47.48c0-3.13,0-3.71-.04-4.37-.04-.7-.21-1.03-.89-1.17-.17-.04-.52-.06-.8-.06-.23,0-.35-.04-.35-.19s.14-.19.45-.19c.95,0,1.9.06,2.97.06.66,0,4.76,0,5.15-.02.39-.04.72-.08.89-.12.1-.02.23-.08.33-.08s.12.08.12.19c0,.14-.1.39-.17,1.34-.02.21-.06,1.11-.1,1.36-.02.1-.06.23-.21.23s-.19-.12-.19-.37c0-.08-.02-.41-.12-.66-.14-.37-.35-.62-1.38-.74-.35-.04-2.52-.08-2.93-.08-.1,0-.14.06-.14.21v5.22c0,.14.02.23.14.23.45,0,2.82,0,3.3-.04.49-.04.8-.1.99-.31.14-.17.23-.27.33-.27.08,0,.14.04.14.17s-.08.45-.17,1.5c-.02.41-.08,1.24-.08,1.38,0,.16,0,.39-.19.39-.14,0-.19-.23-.19-.33-.02-.21-.02-.33-.08-.6-.1-.41-.39-.72-1.15-.8-.39-.04-2.43-.06-2.93-.06-.1,0-.12.08-.12.21v1.63c0,.7-.02,2.6,0,3.2.04,1.42.37,1.73,2.47,1.73.54,0,1.4,0,1.94-.25.54-.25.78-.68.93-1.53.04-.23.08-.31.23-.31.17,0,.17.17.17.37,0,.47-.17,1.88-.27,2.29-.14.54-.33.54-1.11.54-1.83,0-3.65-.12-5.71-.12-.82,0-1.67.06-2.6.06-.27,0-.41-.06-.41-.21,0-.1.08-.16.33-.16.31,0,.56-.04.74-.08.41-.08.52-.54.6-1.13.1-.87.1-2.49.1-4.39v-3.63Z"/>
      <path class="cls-1" d="M266.56,51.11c0,1.9,0,3.53.1,4.41.06.58.19,1.03.8,1.11.29.04.74.08,1.05.08.23,0,.33.06.33.16,0,.14-.17.21-.39.21-1.36,0-2.66-.06-3.24-.06-.47,0-1.77.06-2.6.06-.27,0-.41-.06-.41-.21,0-.1.08-.16.33-.16.31,0,.56-.04.74-.08.41-.08.54-.54.6-1.13.1-.87.1-2.49.1-4.39v-8.45c-.78.02-2.06.06-3.07.08-1.2.04-1.69.14-2,.6-.21.31-.31.56-.35.72-.04.17-.1.25-.23.25-.14,0-.19-.1-.19-.33,0-.33.39-2.21.43-2.37.06-.27.12-.39.25-.39.16,0,.37.21.89.25.6.06,1.38.1,2.06.1h8.16c.66,0,1.11-.06,1.42-.1.31-.06.47-.1.56-.1.14,0,.17.12.17.43,0,.43-.06,1.86-.06,2.39-.02.21-.06.33-.19.33-.17,0-.21-.1-.23-.41,0-.06-.02-.17-.02-.23-.04-.54-.6-1.11-2.43-1.15-.54-.02-1.38-.04-2.6-.06v8.45Z"/>
      <path class="cls-1" d="M90.74,78.32c0,4.02-.06,5.5-.43,6.56-.43,1.26-1.53,2.68-3.5,3.9-.27.17-.6.33-1.03.54-.14.08-.31.12-.41.12-.08,0-.17-.06-.17-.16s.1-.19.45-.37c.27-.14.58-.37.99-.78,1.57-1.59,1.55-3.65,1.55-7.69v-5.92c0-3.13,0-3.71-.04-4.37-.04-.7-.21-1.03-.89-1.18-.17-.04-.52-.06-.8-.06-.23,0-.35-.04-.35-.19s.14-.19.45-.19c1.09,0,2.39.06,2.93.06.49,0,1.79-.06,2.6-.06.29,0,.43.04.43.19s-.12.19-.37.19c-.23,0-.35.02-.6.06-.56.1-.72.45-.76,1.18-.04.66-.04,1.24-.04,4.37v3.81Z"/>
      <path class="cls-1" d="M100.24,78.73c-.1,0-.14.04-.19.17l-1.11,2.95c-.21.52-.31,1.01-.31,1.26,0,.37.19.64.82.64h.31c.25,0,.31.04.31.17,0,.16-.12.21-.35.21-.66,0-1.55-.06-2.19-.06-.23,0-1.36.06-2.43.06-.27,0-.39-.04-.39-.21,0-.12.12-.17.29-.17.19,0,.43-.02.6-.04.95-.12,1.34-.82,1.75-1.85l5.17-12.95c.25-.6.39-.82.58-.82.17,0,.31.19.52.66.5,1.13,3.79,9.54,5.11,12.68.78,1.86,1.38,2.14,1.81,2.25.31.06.62.08.87.08.17,0,.27.04.27.17,0,.16-.19.21-.95.21s-2.39,0-4.04-.04c-.37-.02-.47-.04-.47-.16,0-.1.08-.17.29-.19.14-.04.29-.23.19-.47l-1.65-4.37c-.04-.1-.1-.14-.21-.14h-4.6ZM104.45,77.7c.1,0,.12-.06.1-.12l-1.85-5.09c-.06-.19-.14-.25-.23,0l-1.9,5.07c-.02.08,0,.14.08.14h3.79Z"/>
      <path class="cls-1" d="M128.52,82.73c0,.56-.02.6-.27.74-1.34.7-3.36.93-4.97.93-5.05,0-9.52-2.39-9.52-8.08,0-3.3,1.71-5.61,3.59-6.74,1.98-1.2,3.81-1.34,5.55-1.34,1.42,0,3.24.25,3.65.33.43.08,1.15.21,1.63.23.25.02.29.1.29.25,0,.23-.14.8-.14,3.38,0,.33-.06.43-.23.43-.14,0-.19-.1-.21-.27-.06-.47-.17-1.13-.7-1.71-.62-.66-2.27-1.61-4.6-1.61-1.13,0-2.64.08-4.08,1.28-1.15.97-1.9,2.52-1.9,5.05,0,4.43,2.82,7.75,7.17,7.75.54,0,1.26,0,1.75-.23.31-.14.39-.41.39-.76v-1.94c0-1.03,0-1.81-.02-2.43-.02-.7-.21-1.03-.89-1.18-.17-.04-.52-.06-.8-.06-.19,0-.31-.04-.31-.17,0-.17.14-.21.43-.21,1.07,0,2.37.06,2.99.06s1.73-.06,2.41-.06c.27,0,.41.04.41.21,0,.12-.12.17-.27.17-.17,0-.31.02-.56.06-.56.1-.76.45-.78,1.18-.02.62-.02,1.44-.02,2.47v2.27Z"/>
      <path class="cls-1" d="M136.26,74.5c0-3.13,0-3.71-.04-4.37-.04-.7-.25-1.05-.7-1.15-.23-.06-.49-.08-.74-.08-.21,0-.33-.04-.33-.21,0-.12.17-.17.5-.17.78,0,2.08.06,2.68.06.52,0,1.73-.06,2.52-.06.27,0,.43.04.43.17,0,.17-.12.21-.33.21s-.37.02-.62.06c-.56.1-.72.45-.76,1.18-.04.66-.04,1.24-.04,4.37v3.63c0,2,0,3.63.08,4.51.06.56.21.93.82,1.01.29.04.74.08,1.05.08.23,0,.33.06.33.17,0,.14-.17.21-.39.21-1.36,0-2.66-.06-3.22-.06-.47,0-1.77.06-2.6.06-.27,0-.41-.06-.41-.21,0-.1.08-.17.33-.17.31,0,.56-.04.74-.08.41-.08.54-.43.6-1.03.1-.87.1-2.49.1-4.49v-3.63Z"/>
      <path class="cls-1" d="M147.74,74.5c0-3.13,0-3.71-.04-4.37-.04-.7-.21-1.03-.89-1.18-.16-.04-.52-.06-.8-.06-.23,0-.35-.04-.35-.19s.14-.19.45-.19c.95,0,1.9.06,2.97.06.66,0,4.76,0,5.15-.02.39-.04.72-.08.89-.12.1-.02.23-.08.33-.08s.12.08.12.19c0,.14-.1.39-.16,1.34-.02.21-.06,1.11-.1,1.36-.02.1-.06.23-.21.23s-.19-.12-.19-.37c0-.08-.02-.41-.12-.66-.14-.37-.35-.62-1.38-.74-.35-.04-2.51-.08-2.93-.08-.1,0-.14.06-.14.21v5.22c0,.14.02.23.14.23.45,0,2.82,0,3.3-.04.5-.04.8-.1.99-.31.14-.16.23-.27.33-.27.08,0,.14.04.14.17s-.08.45-.17,1.5c-.02.41-.08,1.24-.08,1.38,0,.17,0,.39-.19.39-.14,0-.19-.23-.19-.33-.02-.21-.02-.33-.08-.6-.1-.41-.39-.72-1.15-.8-.39-.04-2.43-.06-2.93-.06-.1,0-.12.08-.12.21v1.63c0,.7-.02,2.6,0,3.2.04,1.42.37,1.73,2.47,1.73.54,0,1.4,0,1.94-.25.54-.25.78-.68.93-1.53.04-.23.08-.31.23-.31.17,0,.17.16.17.37,0,.47-.17,1.88-.27,2.29-.14.54-.33.54-1.11.54-1.83,0-3.65-.12-5.71-.12-.82,0-1.67.06-2.6.06-.27,0-.41-.06-.41-.21,0-.1.08-.17.33-.17.31,0,.56-.04.74-.08.41-.08.52-.54.6-1.13.1-.87.1-2.49.1-4.39v-3.63Z"/>
      <path class="cls-1" d="M165.3,78.13c0,2.64,0,4.06.43,4.43.35.31.89.45,2.49.45,1.09,0,1.9-.02,2.41-.58.25-.27.49-.85.54-1.24.02-.19.06-.31.23-.31.14,0,.17.1.17.35,0,.23-.14,1.77-.31,2.37-.12.45-.23.56-1.3.56-1.9,0-3.79-.12-6-.12-.82,0-1.67.06-2.6.06-.27,0-.41-.06-.41-.21,0-.1.08-.17.33-.17.31,0,.56-.04.74-.08.41-.08.52-.54.6-1.13.1-.87.1-2.49.1-4.39v-3.63c0-3.13,0-3.71-.04-4.37-.04-.7-.21-1.03-.89-1.18-.17-.04-.41-.06-.68-.06-.23,0-.35-.04-.35-.19s.14-.19.45-.19c.97,0,2.27.06,2.82.06.49,0,2-.06,2.8-.06.29,0,.43.04.43.19s-.12.19-.37.19c-.23,0-.56.02-.8.06-.56.1-.72.45-.76,1.18-.04.66-.04,1.24-.04,4.37v3.63Z"/>
      <path class="cls-1" d="M179.5,78.13c0,2.64,0,4.06.43,4.43.35.31.89.45,2.49.45,1.09,0,1.9-.02,2.41-.58.25-.27.49-.85.54-1.24.02-.19.06-.31.23-.31.14,0,.16.1.16.35,0,.23-.14,1.77-.31,2.37-.12.45-.23.56-1.3.56-1.9,0-3.79-.12-6-.12-.82,0-1.67.06-2.6.06-.27,0-.41-.06-.41-.21,0-.1.08-.17.33-.17.31,0,.56-.04.74-.08.41-.08.52-.54.6-1.13.1-.87.1-2.49.1-4.39v-3.63c0-3.13,0-3.71-.04-4.37-.04-.7-.21-1.03-.89-1.18-.17-.04-.41-.06-.68-.06-.23,0-.35-.04-.35-.19s.14-.19.45-.19c.97,0,2.27.06,2.82.06.49,0,2-.06,2.8-.06.29,0,.43.04.43.19s-.12.19-.37.19c-.23,0-.56.02-.8.06-.56.1-.72.45-.76,1.18-.04.66-.04,1.24-.04,4.37v3.63Z"/>
      <path class="cls-1" d="M189.31,76.32c0-3.52,2.33-8.08,8.51-8.08,5.13,0,8.33,2.99,8.33,7.71s-3.3,8.45-8.53,8.45c-5.92,0-8.31-4.43-8.31-8.08ZM203.26,76.71c0-4.62-2.66-7.48-6.04-7.48-2.37,0-5.07,1.32-5.07,6.45,0,4.29,2.37,7.69,6.33,7.69,1.44,0,4.78-.7,4.78-6.66Z"/>
      <path class="cls-1" d="M212.39,68.87c0-.41.06-.7.27-.7.23,0,.41.27.76.64.25.27,3.38,3.63,6.39,6.62,1.4,1.4,4.29,4.47,4.64,4.8l-.21-9.36c-.02-1.26-.21-1.65-.7-1.85-.31-.12-.8-.12-1.09-.12-.25,0-.33-.06-.33-.19,0-.16.23-.19.54-.19,1.07,0,2.06.06,2.49.06.23,0,1.01-.06,2.02-.06.27,0,.47.02.47.19,0,.12-.12.19-.37.19-.21,0-.37,0-.62.06-.58.17-.74.6-.76,1.75-.08,4.35-.14,8.66-.23,13.01,0,.45-.08.64-.27.64-.23,0-.47-.23-.7-.45-1.3-1.24-3.94-3.94-6.08-6.06-2.25-2.23-4.6-4.86-4.97-5.26l.23,8.72c.04,1.61.31,2.14.72,2.29.35.12.74.14,1.07.14.23,0,.35.04.35.17,0,.16-.19.21-.47.21-1.34,0-2.16-.06-2.56-.06-.19,0-1.15.06-2.23.06-.27,0-.45-.02-.45-.21,0-.12.12-.17.33-.17.27,0,.64-.02.93-.1.54-.17.62-.76.64-2.56.06-4.37.14-9.46.19-12.2ZM222.39,65.64c.1.25,0,.31-.1.31s-.6.08-.99.21c-1.13.39-2,.78-2.97,1.26-.17.08-.31.12-.39.12-.04,0-.14-.02-.14-.12,0-.08.08-.19.19-.31.66-.72,2.14-2.04,2.68-2.41.29-.23.52-.31.6-.31.12,0,.25.06.41.23.23.25.49.52.72,1.03Z"/>
      <path class="cls-1" d="M232.34,83.86c-.33-.14-.39-.25-.39-.7,0-1.13.08-2.37.1-2.7.02-.31.08-.54.25-.54.19,0,.21.19.21.35,0,.27.08.7.19,1.05.45,1.53,1.67,2.08,2.95,2.08,1.86,0,2.76-1.26,2.76-2.35,0-1.01-.31-1.96-2.02-3.3l-.95-.74c-2.27-1.77-3.05-3.22-3.05-4.89,0-2.27,1.9-3.9,4.76-3.9.78,0,1.4.08,1.9.17.35.06.62.12.85.19.19.04.29.1.29.25,0,.27-.08.87-.08,2.47,0,.45-.06.62-.23.62-.14,0-.21-.12-.21-.37,0-.19-.1-.82-.54-1.36-.31-.39-.91-1.01-2.25-1.01-1.53,0-2.45.89-2.45,2.12,0,.95.47,1.67,2.19,2.97l.58.43c2.49,1.88,3.38,3.3,3.38,5.26,0,1.2-.45,2.62-1.94,3.59-1.03.66-2.19.85-3.28.85-1.2,0-2.12-.14-3.01-.54Z"/>
      <path class="cls-1" d="M249.69,75.8c.93-.85,3.38-3.61,4.31-4.68.95-1.11,1.28-1.61,1.28-1.86,0-.16-.04-.27-.47-.37-.21-.04-.27-.1-.27-.21s.06-.17.27-.17c.72,0,1.18.06,2.08.06s2.19-.06,2.49-.06c.33,0,.37.06.37.19,0,.08-.02.17-.27.19-.47.04-.78.1-1.11.23-.72.25-1.22.52-2.31,1.65-.97,1.01-3.63,3.85-4.16,4.43,1.09,1.5,4.66,5.3,5.57,6.16,1.81,1.73,2.41,2.04,3.07,2.23.39.1.45.1.74.14.29.02.41.06.41.19,0,.14-.1.19-.39.19h-1.77c-2.33,0-3.05-.23-4.21-1.42-1.59-1.63-3.92-4.33-5.63-6.45v1.9c0,1.9,0,3.53.06,4.41.04.58.23,1.03.74,1.11.29.04.74.08,1.01.08.17,0,.27.06.27.17,0,.14-.17.21-.39.21-1.15,0-2.45-.06-2.97-.06-.47,0-1.77.06-2.6.06-.27,0-.41-.06-.41-.21,0-.1.08-.17.33-.17.31,0,.56-.04.74-.08.41-.08.52-.54.6-1.13.1-.87.1-2.49.1-4.39v-3.63c0-3.13,0-3.71-.04-4.37-.04-.7-.21-1.03-.89-1.18-.16-.04-.52-.06-.8-.06-.23,0-.35-.04-.35-.19s.14-.19.45-.19c1.09,0,2.39.06,2.89.06s1.79-.06,2.49-.06c.29,0,.43.04.43.19s-.12.19-.29.19c-.21,0-.33.02-.58.06-.56.1-.72.45-.76,1.18-.04.66-.04,1.24-.04,4.37v1.3Z"/>
      <path class="cls-1" d="M265.58,74.5c0-3.13,0-3.71-.04-4.37-.04-.7-.25-1.05-.7-1.15-.23-.06-.49-.08-.74-.08-.21,0-.33-.04-.33-.21,0-.12.16-.17.49-.17.78,0,2.08.06,2.68.06.52,0,1.73-.06,2.52-.06.27,0,.43.04.43.17,0,.17-.12.21-.33.21s-.37.02-.62.06c-.56.1-.72.45-.76,1.18-.04.66-.04,1.24-.04,4.37v3.63c0,2,0,3.63.08,4.51.06.56.21.93.82,1.01.29.04.74.08,1.05.08.23,0,.33.06.33.17,0,.14-.16.21-.39.21-1.36,0-2.66-.06-3.22-.06-.47,0-1.77.06-2.6.06-.27,0-.41-.06-.41-.21,0-.1.08-.17.33-.17.31,0,.56-.04.74-.08.41-.08.54-.43.6-1.03.1-.87.1-2.49.1-4.49v-3.63Z"/>
      <path class="cls-1" d="M87.72,97.57c-.25-.76-.47-1.26-.76-1.46-.23-.14-.64-.19-.82-.19-.21,0-.33-.02-.33-.19,0-.14.17-.19.45-.19,1.07,0,2.21.06,2.39.06s1.09-.06,2.29-.06c.29,0,.43.06.43.19,0,.17-.17.19-.37.19-.17,0-.37,0-.52.08-.19.08-.23.23-.23.45,0,.27.21.97.45,1.9.35,1.36,2.27,7.61,2.66,8.84l4.04-10.82c.21-.58.35-.74.52-.74.23,0,.33.31.6.97l4.33,10.45c.39-1.46,2.04-6.91,2.76-9.32.14-.47.21-.91.21-1.2,0-.33-.19-.62-.99-.62-.21,0-.35-.06-.35-.19,0-.14.17-.19.47-.19,1.09,0,1.96.06,2.14.06.14,0,1.03-.06,1.71-.06.23,0,.37.04.37.17,0,.14-.1.21-.29.21-.21,0-.49.02-.72.1-.49.19-.72,1.01-1.15,2.19-.95,2.6-3.11,9.15-4.12,12.25-.23.72-.33.97-.6.97-.21,0-.33-.25-.64-1.01l-4.31-10.39c-.41,1.11-3.15,8.41-4.04,10.31-.39.85-.5,1.09-.74,1.09-.21,0-.29-.23-.47-.76l-4.37-13.09Z"/>
      <path class="cls-1" d="M124.32,102.82c.93-.85,3.38-3.61,4.31-4.68.95-1.11,1.28-1.61,1.28-1.85,0-.17-.04-.27-.47-.37-.21-.04-.27-.1-.27-.21s.06-.17.27-.17c.72,0,1.18.06,2.08.06s2.19-.06,2.49-.06c.33,0,.37.06.37.19,0,.08-.02.17-.27.19-.47.04-.78.1-1.11.23-.72.25-1.22.52-2.31,1.65-.97,1.01-3.63,3.85-4.16,4.43,1.09,1.5,4.66,5.3,5.57,6.16,1.81,1.73,2.41,2.04,3.07,2.23.39.1.45.1.74.14.29.02.41.06.41.19,0,.14-.1.19-.39.19h-1.77c-2.33,0-3.05-.23-4.21-1.42-1.59-1.63-3.92-4.33-5.63-6.45v1.9c0,1.9,0,3.52.06,4.41.04.58.23,1.03.74,1.11.29.04.74.08,1.01.08.17,0,.27.06.27.17,0,.14-.17.21-.39.21-1.15,0-2.45-.06-2.97-.06-.47,0-1.77.06-2.6.06-.27,0-.41-.06-.41-.21,0-.1.08-.17.33-.17.31,0,.56-.04.74-.08.41-.08.52-.54.6-1.13.1-.87.1-2.49.1-4.39v-3.63c0-3.13,0-3.71-.04-4.37-.04-.7-.21-1.03-.89-1.18-.17-.04-.52-.06-.8-.06-.23,0-.35-.04-.35-.19s.14-.19.45-.19c1.09,0,2.39.06,2.89.06s1.79-.06,2.49-.06c.29,0,.43.04.43.19s-.12.19-.29.19c-.21,0-.33.02-.58.06-.56.1-.72.45-.76,1.18-.04.66-.04,1.24-.04,4.37v1.3Z"/>
      <path class="cls-1" d="M142.27,101.53c0-3.13,0-3.71-.04-4.37-.04-.7-.21-1.03-.89-1.18-.17-.04-.52-.06-.8-.06-.23,0-.35-.04-.35-.19s.14-.19.45-.19c1.09,0,2.39.06,2.82.06.7,0,2.27-.06,2.91-.06,1.3,0,2.68.12,3.79.89.58.39,1.4,1.44,1.4,2.82,0,1.53-.62,2.91-2.7,4.6,1.83,2.31,3.26,4.16,4.47,5.44,1.15,1.2,1.98,1.34,2.29,1.4.23.04.41.06.58.06s.25.06.25.17c0,.17-.14.21-.39.21h-2.02c-1.15,0-1.67-.1-2.21-.39-.89-.47-1.67-1.44-2.82-3.03-.82-1.13-1.77-2.54-2.04-2.84-.1-.12-.23-.14-.37-.14l-1.73-.04c-.1,0-.17.04-.17.16v.29c0,1.92,0,3.55.1,4.41.06.6.19,1.05.8,1.13.31.04.76.08,1.01.08.17,0,.25.06.25.17,0,.14-.14.21-.41.21-1.2,0-2.72-.06-3.03-.06-.39,0-1.69.06-2.52.06-.27,0-.41-.06-.41-.21,0-.1.08-.17.33-.17.31,0,.56-.04.74-.08.41-.08.52-.54.6-1.13.1-.87.1-2.49.1-4.39v-3.63ZM144.7,103.15c0,.23.04.31.19.37.43.14,1.05.21,1.57.21.82,0,1.09-.08,1.46-.35.62-.45,1.22-1.4,1.22-3.09,0-2.93-1.94-3.77-3.15-3.77-.52,0-.89.02-1.09.08-.14.04-.19.12-.19.29v6.27Z"/>
      <path class="cls-1" d="M162.88,105.75c-.1,0-.14.04-.19.17l-1.11,2.95c-.21.52-.31,1.01-.31,1.26,0,.37.19.64.82.64h.31c.25,0,.31.04.31.17,0,.17-.12.21-.35.21-.66,0-1.55-.06-2.19-.06-.23,0-1.36.06-2.43.06-.27,0-.39-.04-.39-.21,0-.12.12-.17.29-.17.19,0,.43-.02.6-.04.95-.12,1.34-.82,1.75-1.86l5.17-12.95c.25-.6.39-.82.58-.82.17,0,.31.19.52.66.5,1.13,3.79,9.54,5.11,12.68.78,1.85,1.38,2.14,1.81,2.25.31.06.62.08.87.08.17,0,.27.04.27.17,0,.17-.19.21-.95.21s-2.39,0-4.04-.04c-.37-.02-.47-.04-.47-.17,0-.1.08-.17.29-.19.14-.04.29-.23.19-.47l-1.65-4.37c-.04-.1-.1-.14-.21-.14h-4.6ZM167.08,104.72c.1,0,.12-.06.1-.12l-1.85-5.09c-.06-.19-.14-.25-.23,0l-1.9,5.07c-.02.08,0,.14.08.14h3.79Z"/>
      <path class="cls-1" d="M182.4,102.82c.93-.85,3.38-3.61,4.31-4.68.95-1.11,1.28-1.61,1.28-1.85,0-.17-.04-.27-.47-.37-.21-.04-.27-.1-.27-.21s.06-.17.27-.17c.72,0,1.17.06,2.08.06s2.19-.06,2.49-.06c.33,0,.37.06.37.19,0,.08-.02.17-.27.19-.47.04-.78.1-1.11.23-.72.25-1.22.52-2.31,1.65-.97,1.01-3.63,3.85-4.16,4.43,1.09,1.5,4.66,5.3,5.57,6.16,1.81,1.73,2.41,2.04,3.07,2.23.39.1.45.1.74.14.29.02.41.06.41.19,0,.14-.1.19-.39.19h-1.77c-2.33,0-3.05-.23-4.21-1.42-1.59-1.63-3.92-4.33-5.63-6.45v1.9c0,1.9,0,3.52.06,4.41.04.58.23,1.03.74,1.11.29.04.74.08,1.01.08.17,0,.27.06.27.17,0,.14-.17.21-.39.21-1.15,0-2.45-.06-2.97-.06-.47,0-1.77.06-2.6.06-.27,0-.41-.06-.41-.21,0-.1.08-.17.33-.17.31,0,.56-.04.74-.08.41-.08.52-.54.6-1.13.1-.87.1-2.49.1-4.39v-3.63c0-3.13,0-3.71-.04-4.37-.04-.7-.21-1.03-.89-1.18-.17-.04-.52-.06-.8-.06-.23,0-.35-.04-.35-.19s.14-.19.45-.19c1.09,0,2.39.06,2.89.06s1.79-.06,2.49-.06c.29,0,.43.04.43.19s-.12.19-.29.19c-.21,0-.33.02-.58.06-.56.1-.72.45-.76,1.18-.04.66-.04,1.24-.04,4.37v1.3Z"/>
      <path class="cls-1" d="M197.27,103.34c0-3.53,2.33-8.08,8.51-8.08,5.13,0,8.33,2.99,8.33,7.71s-3.3,8.45-8.53,8.45c-5.92,0-8.31-4.43-8.31-8.08ZM211.23,103.73c0-4.62-2.66-7.48-6.04-7.48-2.37,0-5.07,1.32-5.07,6.45,0,4.29,2.37,7.69,6.33,7.69,1.44,0,4.78-.7,4.78-6.66Z"/>
      <path class="cls-1" d="M220.19,97.57c-.25-.76-.47-1.26-.76-1.46-.23-.14-.64-.19-.82-.19-.21,0-.33-.02-.33-.19,0-.14.17-.19.45-.19,1.07,0,2.21.06,2.39.06s1.09-.06,2.29-.06c.29,0,.43.06.43.19,0,.17-.16.19-.37.19-.16,0-.37,0-.52.08-.19.08-.23.23-.23.45,0,.27.21.97.45,1.9.35,1.36,2.27,7.61,2.66,8.84l4.04-10.82c.21-.58.35-.74.52-.74.23,0,.33.31.6.97l4.33,10.45c.39-1.46,2.04-6.91,2.76-9.32.14-.47.21-.91.21-1.2,0-.33-.19-.62-.99-.62-.21,0-.35-.06-.35-.19,0-.14.16-.19.47-.19,1.09,0,1.96.06,2.14.06.14,0,1.03-.06,1.71-.06.23,0,.37.04.37.17,0,.14-.1.21-.29.21-.21,0-.49.02-.72.1-.5.19-.72,1.01-1.15,2.19-.95,2.6-3.11,9.15-4.12,12.25-.23.72-.33.97-.6.97-.21,0-.33-.25-.64-1.01l-4.31-10.39c-.41,1.11-3.15,8.41-4.04,10.31-.39.85-.49,1.09-.74,1.09-.21,0-.29-.23-.47-.76l-4.37-13.09Z"/>
      <path class="cls-1" d="M247.78,101.53c0-3.13,0-3.71-.04-4.37-.04-.7-.25-1.05-.7-1.15-.23-.06-.49-.08-.74-.08-.21,0-.33-.04-.33-.21,0-.12.17-.17.49-.17.78,0,2.08.06,2.68.06.52,0,1.73-.06,2.51-.06.27,0,.43.04.43.17,0,.16-.12.21-.33.21s-.37.02-.62.06c-.56.1-.72.45-.76,1.18-.04.66-.04,1.24-.04,4.37v3.63c0,2,0,3.63.08,4.51.06.56.21.93.82,1.01.29.04.74.08,1.05.08.23,0,.33.06.33.17,0,.14-.17.21-.39.21-1.36,0-2.66-.06-3.22-.06-.47,0-1.77.06-2.6.06-.27,0-.41-.06-.41-.21,0-.1.08-.17.33-.17.31,0,.56-.04.74-.08.41-.08.54-.43.6-1.03.1-.87.1-2.49.1-4.49v-3.63Z"/>
      <path class="cls-1" d="M260.5,101.53c0-3.13,0-3.71-.04-4.37-.04-.7-.21-1.03-.89-1.18-.17-.04-.52-.06-.8-.06-.23,0-.35-.04-.35-.19s.14-.19.45-.19c.95,0,1.9.06,2.97.06.66,0,4.76,0,5.15-.02.39-.04.72-.08.89-.12.1-.02.23-.08.33-.08s.12.08.12.19c0,.14-.1.39-.17,1.34-.02.21-.06,1.11-.1,1.36-.02.1-.06.23-.21.23s-.19-.12-.19-.37c0-.08-.02-.41-.12-.66-.14-.37-.35-.62-1.38-.74-.35-.04-2.51-.08-2.93-.08-.1,0-.14.06-.14.21v5.22c0,.14.02.23.14.23.45,0,2.82,0,3.3-.04.49-.04.8-.1.99-.31.14-.17.23-.27.33-.27.08,0,.14.04.14.17s-.08.45-.17,1.5c-.02.41-.08,1.24-.08,1.38,0,.17,0,.39-.19.39-.14,0-.19-.23-.19-.33-.02-.21-.02-.33-.08-.6-.1-.41-.39-.72-1.15-.8-.39-.04-2.43-.06-2.93-.06-.1,0-.12.08-.12.21v1.63c0,.7-.02,2.6,0,3.2.04,1.42.37,1.73,2.47,1.73.54,0,1.4,0,1.94-.25.54-.25.78-.68.93-1.53.04-.23.08-.31.23-.31.16,0,.16.17.16.37,0,.47-.16,1.88-.27,2.29-.14.54-.33.54-1.11.54-1.83,0-3.65-.12-5.71-.12-.82,0-1.67.06-2.6.06-.27,0-.41-.06-.41-.21,0-.1.08-.17.33-.17.31,0,.56-.04.74-.08.41-.08.52-.54.6-1.13.1-.87.1-2.49.1-4.39v-3.63Z"/>
    </g>
  </g>
</svg>