<svg xmlns="http://www.w3.org/2000/svg" id="Warstwa_1" data-name="Warstwa 1" viewBox="0 0 115.49 60">
  <defs>
    <style>
      .cls-1 {
        letter-spacing: .02em;
      }

      .cls-2 {
        letter-spacing: .05em;
      }

      .cls-3 {
        letter-spacing: .05em;
      }

      .cls-4 {
        letter-spacing: .04em;
      }

      .cls-5 {
        letter-spacing: .08em;
      }

      .cls-6, .cls-7 {
        fill: #fff;
      }

      .cls-8 {
        letter-spacing: .04em;
      }

      .cls-9 {
        font-family: Raleway-Bold, Raleway;
        font-size: 15px;
        font-weight: 700;
      }

      .cls-10 {
        letter-spacing: .03em;
      }

      .cls-11 {
        letter-spacing: .07em;
      }

      .cls-12 {
        letter-spacing: .03em;
      }

      .cls-13 {
        letter-spacing: .02em;
      }

      .cls-14 {
        font-family: Raleway-SemiBold, Raleway;
        font-size: 9px;
        font-weight: 600;
      }

      .cls-15 {
        letter-spacing: 0em;
      }

      .cls-7 {
        stroke-width: 0px;
      }
    </style>
  </defs>
  <g>
    <path class="cls-7" d="M17.52,20.86c.66-.87,1.35-1.73,1.97-2.62,1.61-2.31,2.76-4.8,3.42-7.47.08-.34.31-.52.63-.51.31,0,.53.18.6.51.66,3.09,1.31,6.18,1.97,9.27.07.33.11.66.21.98.1.33.02.6-.2.88-1.05,1.33-2.27,2.52-3.63,3.6-2.93,2.33-6.28,3.96-10.09,4.81-.04,0-.07.02-.11.03-.02,0-.03.02-.04.03.73.2,1.46.38,2.18.61,4.74,1.51,8.58,4.11,11.58,7.74.29.35.38.7.29,1.14-.72,3.33-1.42,6.67-2.13,10.01-.01.05-.02.1-.04.15-.07.28-.29.45-.58.46-.3,0-.54-.17-.62-.46-.23-.77-.44-1.56-.71-2.32-1.05-2.89-2.7-5.49-4.78-7.86,0,0-.02,0-.05-.02,0,.04,0,.07,0,.09.71,1.61,1.03,3.31,1.26,5.02.19,1.4.26,2.8.21,4.21,0,.24-.11.41-.29.57-2.81,2.38-5.62,4.77-8.43,7.16-.05.04-.1.09-.15.13-.26.21-.55.23-.8.08-.25-.16-.32-.4-.21-.7.18-.47.38-.94.54-1.41,1.14-3.37,1.35-6.81.87-10.3-.52-3.8-1.77-7.4-3.56-10.86-.49-.94-1.05-1.85-1.58-2.77-.05-.09-.12-.18-.19-.26-.25-.3-.22-.6.07-.87.09-.08.16-.17.22-.27,2.33-3.76,3.97-7.75,4.79-12,.8-4.14.68-8.25-.8-12.28-.11-.3-.24-.59-.35-.89-.13-.32-.06-.56.21-.72.26-.16.55-.12.82.11,2.87,2.43,5.73,4.87,8.59,7.31.14.12.24.33.24.5.08,3.1-.24,6.16-1.39,9.11,0,0,0,.02,0,.02.02.02.05.03.07.05ZM10.89,54.68c.13-.11.21-.17.3-.24,2.07-1.76,4.13-3.52,6.21-5.27.17-.14.25-.29.25-.5.02-2.03-.19-4.03-.64-6.02-.63-2.83-2.09-5.24-4.39-7.24-1.22-1.06-2.61-1.93-4.02-2.77-.46-.27-.92-.53-1.39-.79,0,.12.04.21.09.29,2.25,4.07,3.8,8.33,4.35,12.87.32,2.66.25,5.3-.32,7.93-.12.56-.28,1.12-.43,1.74ZM7.24,28.83c.13-.07.22-.1.3-.15.78-.46,1.58-.89,2.33-1.39,1.11-.75,2.25-1.48,3.24-2.35,1.67-1.47,2.82-3.27,3.48-5.29.82-2.48,1.09-5.03,1.04-7.61,0-.12-.1-.26-.2-.35-2.07-1.77-4.14-3.53-6.22-5.29-.09-.07-.18-.15-.32-.26.03.13.04.18.05.24.9,3.08,1.08,6.2.71,9.36-.42,3.65-1.53,7.14-3.12,10.52-.4.85-.85,1.68-1.3,2.58ZM7.99,30.97c3.48,1.94,6.61,4.24,9.31,7,2.71,2.78,4.79,5.88,6.11,9.44.04-.08.06-.1.07-.12.54-2.53,1.07-5.06,1.6-7.59.03-.12-.02-.3-.11-.4-3.35-4.01-7.69-6.68-13.12-7.86-1.26-.28-2.55-.44-3.85-.46ZM23.45,13.36s-.03,0-.05-.01c-.02.06-.05.11-.07.17-1.23,3.25-3.14,6.15-5.58,8.77-1.28,1.38-2.73,2.6-4.18,3.83-1.59,1.34-3.36,2.45-5.19,3.5-.06.04-.12.08-.19.12,0,.02.02.04.03.06.72-.08,1.45-.14,2.16-.25,6.05-.94,10.85-3.71,14.56-8.07.14-.17.17-.32.13-.53-.34-1.58-.67-3.16-1.01-4.73-.2-.95-.41-1.9-.61-2.85Z"/>
    <path class="cls-7" d="M7.46,12.89c-.05,3.33-.73,6.56-1.86,9.73-.93,2.61-2.13,5.12-3.64,7.5-.1.16-.1.27,0,.42,2.29,3.66,3.92,7.54,4.84,11.66.68,3.05.87,6.13.43,9.23-.26,1.81-.74,3.57-1.46,5.28-.17.4-.52.56-.88.41-.31-.14-.41-.42-.26-.79.51-1.21.9-2.46,1.16-3.73.49-2.37.58-4.76.31-7.15-.6-5.27-2.51-10.15-5.44-14.73-.17-.26-.17-.49,0-.76,2.64-4.07,4.41-8.43,5.22-13.09.63-3.66.52-7.3-.64-10.88-.18-.55-.41-1.09-.6-1.64-.05-.14-.08-.31-.05-.46.05-.24.25-.37.52-.39.27-.02.52.12.63.38.22.55.44,1.1.63,1.66.8,2.4,1.13,4.85,1.1,7.35Z"/>
  </g>
  <text class="cls-6" transform="translate(32.58 22.93)"><tspan class="cls-9"><tspan class="cls-5" x="0" y="0">E</tspan><tspan class="cls-8" x="10.22" y="0">D</tspan><tspan class="cls-12" x="21.49" y="0">Y</tspan><tspan class="cls-5" x="31.87" y="0">CJE </tspan></tspan><tspan class="cls-9"><tspan class="cls-11" x="0" y="14">C</tspan><tspan class="cls-5" x="11.27" y="14">YFR</tspan><tspan class="cls-2" x="43.35" y="14">O</tspan><tspan class="cls-5" x="55.5" y="14">WE</tspan></tspan><tspan class="cls-14"><tspan class="cls-3" x="0" y="26">E</tspan><tspan class="cls-15" x="5.88" y="26">D</tspan><tspan class="cls-3" x="12.37" y="26">Y</tspan><tspan class="cls-13" x="18.74" y="26">T</tspan><tspan class="cls-3" x="24.44" y="26">OR</tspan><tspan class="cls-4" x="38.05" y="26">S</tspan><tspan class="cls-3" x="43.96" y="26">T</tspan><tspan class="cls-1" x="49.95" y="26">W</tspan><tspan class="cls-3" x="59.63" y="26">O </tspan><tspan class="cls-10" x="69.52" y="26">U</tspan><tspan class="cls-3" x="76.53" y="26">J</tspan></tspan></text>
  <text/>
</svg>